<svg xmlns="http://www.w3.org/2000/svg" version="1.1" xmlns:xlink="http://www.w3.org/1999/xlink" width="589.9392854297695" height="200" viewBox="0.7257143259048462 13.129241943359375 73.97000122070312 18.467336654663086"><path d="M17.52 15.16L17.52 15.16Q19.79 13.09 20.41 13.13Q21.04 13.18 21.37 13.96Q21.70 14.73 21.65 15.01Q21.60 15.29 20.92 15.33Q20.23 15.37 18.76 17.01Q17.29 18.65 16.51 19.62Q15.74 20.59 14.54 21.93Q13.34 23.28 13.00 23.81Q12.66 24.34 9.00 27.66Q5.35 30.98 4.78 31.26Q4.20 31.54 3.38 31.59Q2.56 31.64 2.03 31.31Q1.50 30.98 1.22 30.39Q0.94 29.80 0.79 28.17Q0.64 26.54 0.84 25.10Q1.04 23.65 1.08 23.03Q1.13 22.40 1.27 21.69Q1.41 20.98 1.46 19.29Q1.50 17.60 1.41 16.92Q1.31 16.25 1.60 15.63Q1.89 15 2.42 14.91Q2.95 14.82 3.14 14.87Q3.34 14.92 3.72 15.40Q4.10 15.88 4.20 16.55Q4.30 17.23 4.25 19.29Q4.20 21.35 3.87 23.37Q3.54 25.39 3.58 26.84Q3.63 28.28 3.87 28.38Q4.10 28.48 4.63 28.09Q5.16 27.70 6.12 26.92Q7.09 26.15 7.52 25.72Q7.95 25.29 9.15 23.99Q10.35 22.70 12.08 20.97Q13.81 19.24 14.53 18.23Q15.25 17.23 17.52 15.16ZM23.32 15.55L23.32 15.55Q23.75 15.90 23.84 17.08Q23.93 18.26 24.65 19.38Q25.37 20.51 26.35 21.17Q27.32 21.84 28.13 22.11Q28.95 22.38 28.09 22.24Q27.23 22.09 26.38 21.55Q25.53 21.02 24.55 19.95Q23.57 18.89 23.13 18.39Q22.68 17.89 22.49 17.83Q22.30 17.77 22.18 17.74Q22.05 17.71 21.59 17.35Q21.13 16.99 21.26 16.46Q21.39 15.94 21.60 15.68Q21.82 15.43 22.35 15.30Q22.89 15.18 23.32 15.55ZM20.20 21.46L20.20 21.46Q20.63 21.37 21.18 21.52Q21.74 21.68 21.38 22.66Q21.02 23.63 20.59 25.20Q20.16 26.76 19.78 27.73Q19.39 28.71 18.93 29.42Q18.46 30.14 18.03 30.20Q17.60 30.25 17.43 30.17Q17.27 30.08 17.40 29.26Q17.54 28.44 17.98 26.75Q18.42 25.06 18.81 23.81Q19.20 22.56 18.82 22.53Q18.44 22.50 19.11 22.03Q19.79 21.56 20.20 21.46ZM27.64 13.55L27.64 13.55Q28.05 13.14 28.76 13.44Q29.47 13.73 29.01 15.96Q28.55 18.18 28.01 20.41Q27.46 22.64 28.25 22.57Q29.04 22.50 29.72 21.95Q30.39 21.41 31.21 20.79Q32.03 20.18 32.76 19.72Q33.50 19.26 33.65 19.97Q33.81 20.68 33.55 21.16Q33.30 21.64 31.48 22.85Q29.67 24.06 29.76 24.37Q29.84 24.67 29.94 24.97Q30.04 25.27 30.75 26.30Q31.46 27.32 32.63 28.43Q33.79 29.53 33.67 29.79Q33.55 30.06 33.26 30.15Q32.97 30.23 32.52 30.30Q32.07 30.37 31.17 29.60Q30.27 28.83 29.44 27.70Q28.61 26.56 28.04 25.89Q27.46 25.21 27.24 25.05Q27.01 24.88 26.40 26.87Q25.78 28.85 25.31 29.84Q24.84 30.84 24.28 30.69Q23.71 30.55 23.55 30.39Q23.40 30.23 23.51 29.77Q23.61 29.30 24.22 28.02Q24.82 26.74 25.62 23.03Q26.41 19.32 26.61 17.80Q26.82 16.29 26.20 17.45Q25.59 18.61 24.15 20.63Q22.71 22.66 23.83 20.94Q24.94 19.22 25.41 18.37Q25.88 17.52 26.55 15.74Q27.23 13.96 27.64 13.55ZM34.90 24.30L34.90 24.30Q35.61 21.58 36.26 21.64Q36.91 21.70 37.25 22.23Q37.58 22.75 37.18 23.53Q36.78 24.30 37.10 24.25Q37.42 24.20 37.95 23.86Q38.48 23.52 38.96 23.31Q39.43 23.11 39.73 23.05Q40.02 22.99 40.85 23.24Q41.68 23.50 42.42 23.96Q43.16 24.41 44.38 24.03Q45.61 23.65 44.12 24.29Q42.64 24.92 41.08 24.88Q39.53 24.84 38.68 25.25Q37.83 25.66 37.25 26.16Q36.66 26.66 36.16 27.80Q35.66 28.95 35.40 29.73Q35.14 30.51 34.93 31.01Q34.73 31.50 34.09 31.53Q33.46 31.56 33.25 31.07Q33.05 30.59 33.15 30.44Q33.26 30.29 33.74 28.65Q34.22 27.01 34.90 24.30ZM48.98 21.66L48.98 21.66Q49.43 21.54 49.97 21.62Q50.51 21.70 50.83 21.95Q51.15 22.21 51.45 22.95Q51.74 23.69 51.18 23.95Q50.63 24.20 50.18 23.77Q49.73 23.34 49.24 23.59Q48.75 23.85 48.27 24.11Q47.79 24.38 47.09 24.94Q46.39 25.51 45.64 26.39Q44.90 27.27 44.82 27.51Q44.75 27.75 45.21 27.44Q45.66 27.13 46.61 26.49Q47.56 25.86 48.99 25.20Q50.43 24.53 50.81 24.68Q51.19 24.82 51.46 25.21Q51.74 25.61 51.78 25.89Q51.82 26.17 51.69 26.34Q51.56 26.50 51.40 27.09Q51.23 27.68 51.43 28.22Q51.62 28.77 51.92 28.97Q52.23 29.18 52.75 29.09Q53.28 29.00 54.05 28.29Q54.82 27.58 53.98 28.62Q53.14 29.67 52.66 29.95Q52.17 30.23 51.89 30.22Q51.62 30.21 51.18 30.05Q50.74 29.88 50.35 29.53Q49.96 29.18 49.74 28.67Q49.51 28.16 49.43 27.92Q49.36 27.68 49.07 27.38Q48.79 27.09 48.38 27.26Q47.97 27.42 46.94 28.16Q45.92 28.91 45.03 29.38Q44.14 29.86 43.44 30.05Q42.73 30.23 42.53 30.18Q42.32 30.12 42.08 29.74Q41.84 29.36 41.80 28.91Q41.76 28.46 41.92 28.00Q42.09 27.54 43.17 26.16Q44.26 24.79 45.26 23.91Q46.27 23.03 47.40 22.41Q48.54 21.80 48.98 21.66ZM56.19 22.01L56.19 22.01Q56.93 21.00 57.40 21.04Q57.87 21.07 58.01 21.43Q58.14 21.78 58.24 22.08Q58.34 22.38 58.44 22.96Q58.54 23.54 57.65 25.20Q56.76 26.86 57.77 25.62Q58.79 24.38 59.51 24.07Q60.23 23.77 60.84 24.07Q61.45 24.38 61.60 24.80Q61.76 25.23 61.80 25.78Q61.84 26.33 61.95 26.41Q62.07 26.48 63.24 25.23Q64.41 23.98 65.30 23.58Q66.19 23.18 66.78 23.42Q67.36 23.65 67.80 24.34Q68.24 25.02 68.95 26.33Q69.65 27.64 70.40 28.25Q71.15 28.87 71.74 28.98Q72.32 29.10 73.77 28.35Q75.21 27.60 74.41 28.07Q73.61 28.54 72.80 28.88Q71.99 29.22 71.66 29.40Q71.33 29.59 70.75 29.73Q70.18 29.86 69.67 29.61Q69.16 29.36 68.69 28.96Q68.22 28.55 67.52 27.63Q66.82 26.70 66.51 26.25Q66.21 25.80 65.76 25.88Q65.31 25.96 64.82 26.38Q64.34 26.80 63.49 27.58Q62.64 28.36 62.16 29.22Q61.68 30.08 61.58 30.32Q61.48 30.57 61.07 31.01Q60.66 31.45 60.29 31.34Q59.92 31.23 59.76 30.95Q59.59 30.66 59.73 29.94Q59.86 29.22 59.95 28.55Q60.04 27.89 60.09 27.11Q60.14 26.33 59.63 26.28Q59.12 26.23 57.94 27.39Q56.76 28.55 56.45 29.20Q56.13 29.84 55.95 30.12Q55.76 30.39 55.56 30.55Q55.35 30.70 54.74 30.51Q54.12 30.31 54.04 30Q53.96 29.69 54.34 28.73Q54.71 27.77 55.31 25.78Q55.92 23.79 56.15 23.26Q56.39 22.73 52.90 25.18Q49.41 27.62 50.95 26.37Q52.48 25.12 53.96 24.07Q55.45 23.03 56.19 22.01Z" fill="black"></path></svg>